<svg xmlns="http://www.w3.org/2000/svg" xmlns:xlink="http://www.w3.org/1999/xlink" id="Layer_1" x="0px" y="0px" viewBox="0 0 1058.8 873.2" style="enable-background:new 0 0 1058.8 873.2;" xml:space="preserve"><style type="text/css">	.st0{fill:#DEEBFF;}	.st1{fill:#256B4C;}	.st2{fill:#52A880;}	.st3{fill:#98BC67;}	.st4{fill:#789E44;}	.st5{fill:#E54E67;}	.st6{fill:#E03B56;}	.st7{fill:#1C406B;}	.st8{fill:#FF9052;}	.st9{fill:#DE743A;}	.st10{fill:#FFD4D1;}	.st11{fill:#F0BAB6;}	.st12{fill:#FFC6C5;}	.st13{fill:#FFFFFF;}	.st14{fill:#73C4FF;}	.st15{fill:#FFB86B;}	.st16{fill:#3D70B3;}</style><g>	<path class="st0" d="M470.2,690.7c94.9-41.2,135.8,8.7,237.5,22.5c142.4,19.4,203.1-101.2,156.5-204.9  c-29-64.6-96.2-83.3-95.2-157.1c1.3-95-9.2-157-99-182.8c-137.8-39.5-156.9,93-230.5,153.8c-63.5,52.4-137.7,56.7-199,123  c-61.4,66.3-58.8,156.7-1.9,217.2C279.8,706.1,366,736,470.2,690.7z"></path>	<path class="st0" d="M436.7,258.2c93.3-110.3-57.2-211.2-105-92.5c-27.2,67.5-51.8,51.7-71.4,86.2c-22.7,40.1,20.4,86.3,72.8,72.4  C380,311.7,407.1,293.1,436.7,258.2z"></path>	<path class="st0" d="M222.7,341.2c3.8,16.3,31.4,11.5,37.7,25.6c8.6,19.1-21.6,35.2-39.8,28.5c-41.4-15.1-42.6-57.7-21-82.5  c6.7-7.7,25.3-12.3,25.6,3.7C225.3,327.2,219.7,328.4,222.7,341.2z"></path>	<g>		<g>			<g>				<path class="st1" d="M206.8,837.7c1-0.4,2-0.7,3.1-1c0.7-25.9,3.6-53.1,9.8-75.5c13.3-47.8,0.5-75.3-0.1-76.4l-2.8,1.3     c0.1,0.3,12.9,27.6-0.1,74.3C210.4,783.4,207.5,811.2,206.8,837.7z"></path>			</g>			<g>				<path class="st1" d="M220,835.1c0.7,0,1.4-0.1,2.1-0.1c0.3,0,0.7,0,1,0c2.4-75.7-37.3-88.1-39-88.6l-0.9,2.9     C183.6,749.5,222.4,761.6,220,835.1z"></path>			</g>			<g>				<path class="st1" d="M235.7,825.2c-0.2,3.4-0.6,7.3-1.3,11.5c1,0.3,2,0.6,3,0.9c0.7-4.5,1.1-8.6,1.4-12.2     c0.6-11.2-1.1-24.3-2.7-37c-2.3-17.2-4.4-33.5-0.9-44.6c2-6.5,6.6-11.2,12.7-13.1c6.6-2.1,14.2-0.5,20.1,4.1l1.9-2.4     c-6.8-5.3-15.3-7-22.9-4.6c-7.1,2.2-12.5,7.7-14.8,15.1c-3.6,11.7-1.5,28.3,0.8,45.9C234.6,801.3,236.3,814.3,235.7,825.2z"></path>			</g>			<g>				<g>					<path class="st1" d="M134.2,784.4c8.9-3.7,19.2-21,28.9-20.6c2.2,11-14.2,11.5-20.3,18.1c-5.1,6.8,19.1,10.5,29.5,3.5      c8.7-5.3,5-17.9,14.4-36.6c7.8-16.2,13.6-16.7,14.3-26.4c1.1-17.7-17.2-33.7-19.2-32.6c-0.8,0.5,1.5,3.5,2.4,11.4      c0.7,0.6,0.7,32-7.4,21.7c-5.7-13,9.1-22.7-0.9-37.4c-7.5-11-26.6-10.6-27-9.3c9.7,2.2,16,27.1,11.8,37.1      c-3,5.8-5.4,0.9-6.3-4.9c-5.4-18.9-7-29.2-20.9-36.7c-17.1-9.2-30.4,7.1-51.9,10.9c0,0-4.9,26.4,5.8,40.8      c10.3,13.9,24.4,0.6,35.7,3.9c5,0.9,6.3,7.3,3.2,10.5c-4.3,6.4-14.5,7-21.8,7.4c-12.1,0.6-16.5-1.9-17.8,0.4      c-3.8,5.9,15.2,21.8,25.5,18c13,0.9,27.2-21.1,40.3-15.6c0.4,10.3-25.2,22-36.3,22.9c-5.9-0.2-9.9-2.8-10.4-1.9      C108.6,774.7,126,787.1,134.2,784.4z"></path>				</g>				<g>					<path class="st2" d="M156,782.2c3-0.4,5.8-1.5,8.3-3.3c2.4-1.7,4.2-3.9,5.7-6.4c1.6-2.8,2.6-5.7,3.8-8.7      c1.3-3.2,2.7-6.3,4.3-9.3c0.7-1.4,1.5-2.8,2.4-4c0.7-1.1,1.7-2.1,3.1-2.2c0,0,0,0,0,0c0.2,0.1,0.4,0.2,0.6,0.4      c0.7,0.4,1.4,0.8,2,1.3c0-0.1,0.1-0.2,0.1-0.3c-1.2-0.8-2.5-1.6-3.8-2.2c0,0,0,0,0,0c-0.5-0.4-0.8-1-1.2-1.5      c-0.3-0.5-0.6-1.1-0.6-1.7c0-0.9,0.4-1.8,0.7-2.6c0.3-0.8,0.7-1.7,1.1-2.5c2.6-5.8,6.1-11.2,8-17.3c1.6-5,2.1-10.5,0.2-15.5      c-0.1-0.2-0.4-0.1-0.3,0.1c1.1,2.9,1.4,6,1.1,9.1c-0.6,6-3.3,11.5-6,16.9c-1.5,2.9-3.1,5.9-4.3,9c-0.5,1.1-1,2.5-0.5,3.7      c0.2,0.7,0.6,1.3,1.1,1.9c-3.7-1.8-7.6-3-11.6-4.2c-0.2-0.1-0.4-0.1-0.5-0.2c0,0,0,0,0,0c-2.1-2.2-3.3-5-4-7.9      c-1.4-5.9,0-11.9,1.5-17.6c0.4-1.6,0.9-3.2,1.3-4.7c0.4-1.5,0.7-3,0.9-4.5c0.3-2.6-0.2-5.5-2.1-7.4c-0.2-0.1-0.4,0.1-0.3,0.2      c2.4,2.4,2.3,6.1,1.7,9.2c-1.3,6.2-3.7,12.2-3.9,18.6c-0.2,4.9,1,10.2,4.3,14c-3.7-1.1-7.3-2.3-10.8-4.1      c-1.9-1-3.6-2.1-5.3-3.4c0,0,0,0,0,0c0,0,0,0-0.1,0c-1.5-1.2-2.9-2.4-4.3-3.7c-2.3-2.2-4.5-4.4-6.8-6.6c-1.4-3-1.9-6.4-2.2-9.7      c-0.6-5.9-0.2-12-2.1-17.7c-1.7-5.1-6-10-11.7-10.1c-0.2,0-0.2,0.3,0,0.3c3.2,0.1,6,1.8,8.1,4.1c4,4.5,4.7,10.8,4.9,16.6      c0.3,5.3,0.4,10.9,2.4,15.9c-0.3-0.3-0.6-0.6-0.9-0.8c-3-2.8-6.2-5.2-9.7-7.2c-7.2-4.2-15.1-6.9-22.9-9.5      c-0.2-0.1-0.3,0.2-0.1,0.3c1,0.3,1.9,0.6,2.9,1c7.5,2.6,15.1,5.4,21.9,9.6c-2.1-0.4-4.4,0.1-6.4,0.6c-2.6,0.6-5.6,1.1-7.9-0.6      c-0.2-0.1-0.4,0.1-0.2,0.3c2.2,1.6,5,1.3,7.5,0.8c2.6-0.5,5.4-1.4,8-0.4c0,0,0,0,0,0c0,0,0,0,0,0c3.3,2.2,6.3,4.9,9.2,7.7      c2.7,2.7,5.4,5.5,8.3,8c0.3,0.2,0.6,0.5,0.8,0.7c-2.9-1.1-6.2-0.5-9.1,0.6c-3.3,1.4-6,3.7-8.6,6c-2.6,2.3-5.3,4.4-8.3,6.1      c-5.8,3.3-12.4,5.2-19,5.7c-0.2,0-0.2,0.3,0.1,0.3c3.6-0.2,7.2-0.9,10.7-2c3.1-1,6.1-2.3,8.9-4c2.9-1.7,5.5-3.8,8-6      c2.6-2.3,5.4-4.7,8.7-6c3.1-1.2,6.7-1.6,9.7,0.1c2.4,1.9,5,3.4,7.9,4.7c3.9,1.7,8,2.8,12,4.1c0.3,0.1,0.7,0.2,1,0.3      c-2.3,0.4-4.5,1.4-6.4,2.8c-2,1.5-3.7,3.3-5.4,5.2c-1.7,1.9-3.4,3.8-5.3,5.6c-3.7,3.4-7.8,6.3-12.2,8.6c-0.2,0.1,0,0.4,0.1,0.3      c2.4-1.3,4.8-2.7,7-4.3c2-1.4,3.9-3,5.7-4.7c1.8-1.7,3.5-3.6,5.2-5.5c1.7-1.9,3.4-3.8,5.5-5.2c1.9-1.3,4.2-2.3,6.5-2.5      c0,0,0,0,0,0c3,1,6,2.1,8.7,3.6c-1.2,0.3-2.1,1.1-2.8,2.1c-1,1.4-1.8,3-2.7,4.5c-1.6,3-3,6-4.2,9.1c-1.2,3-2.3,6.1-3.9,8.9      c-1.5,2.5-3.4,4.7-5.9,6.4c-2.3,1.5-4.9,2.5-7.7,2.9C155.7,781.9,155.8,782.2,156,782.2z"></path>				</g>			</g>			<g>				<g>					<path class="st1" d="M327.8,712.2c-9.5,1.4-23.7,15.8-33,13.1c0.5-11.3,16.5-7.8,24-12.7c6.5-5.4-16-14.7-27.8-10.5      c-9.8,3.1-9.1,16.1-22.7,32.1c-11.4,13.8-17.2,13-20.1,22.2c-5.3,16.9,8.7,36.9,10.9,36.2c0.9-0.3-0.6-3.7,0.4-11.7      c-0.5-0.8,6.9-31.2,12.4-19.3c2.4,14-14.2,19.8-8.1,36.5c4.6,12.5,23.3,16.7,24,15.4c-8.9-4.5-9-30.1-2.6-38.9      c4.3-4.9,5.5,0.4,4.9,6.3c0.8,19.6-0.2,30,11.5,40.6c14.4,13,31.2,0.4,53,1.8c0,0,11-24.4,4.1-41c-6.7-16-23.6-6.4-33.7-12.3      c-4.7-2.1-4.4-8.6-0.6-11c5.7-5.2,15.7-3.4,22.9-2c11.9,2.3,15.5,5.8,17.4,3.9c5.1-4.8-9.6-24.8-20.4-23.6      c-12.4-4-31.5,14-42.9,5.6c2-10.1,29.8-15.4,40.7-13.6c5.7,1.6,8.9,5.1,9.7,4.3C350.3,727.6,336.4,711.4,327.8,712.2z"></path>				</g>				<g>					<path class="st2" d="M306.1,709.1c-3-0.3-6,0.1-8.8,1.2c-2.7,1.1-5.1,2.8-7,4.9c-2.2,2.3-3.9,5-5.8,7.5c-2,2.8-4.1,5.5-6.4,8      c-1,1.1-2.1,2.3-3.2,3.3c-1,0.9-2.1,1.6-3.5,1.4c0,0,0,0,0,0c-0.2-0.2-0.4-0.3-0.5-0.5c-0.6-0.6-1.1-1.1-1.7-1.7      c-0.1,0.1-0.1,0.2-0.2,0.3c1,1.1,2,2.1,3.1,3.1c0,0,0,0,0,0c0.3,0.5,0.6,1.1,0.8,1.7c0.2,0.6,0.3,1.2,0.2,1.8      c-0.2,0.9-0.8,1.7-1.3,2.4c-0.5,0.7-1.1,1.4-1.6,2.2c-3.9,5-8.6,9.4-11.9,14.8c-2.7,4.5-4.5,9.7-3.9,15c0,0.2,0.4,0.2,0.3-0.1      c-0.4-3.1,0.1-6.2,1.1-9.1c2-5.7,5.9-10.4,9.9-14.9c2.2-2.5,4.4-5,6.3-7.7c0.7-1,1.5-2.2,1.4-3.4c-0.1-0.7-0.3-1.5-0.6-2.1      c3.2,2.6,6.7,4.7,10.2,6.8c0.2,0.1,0.3,0.2,0.5,0.3c0,0,0,0,0,0c1.5,2.6,2.1,5.6,2,8.6c-0.1,6.1-2.8,11.5-5.7,16.8      c-0.8,1.4-1.6,2.9-2.3,4.3c-0.7,1.4-1.4,2.7-2,4.2c-0.9,2.5-1.1,5.3,0.3,7.7c0.1,0.2,0.4,0,0.3-0.1c-1.8-2.9-0.8-6.4,0.5-9.3      c2.7-5.7,6.5-11,8.3-17.2c1.3-4.7,1.4-10.1-0.9-14.6c3.3,2,6.6,4,9.5,6.6c1.6,1.4,3,2.9,4.3,4.6c0,0,0,0,0,0c0,0,0,0,0.1,0      c1.2,1.5,2.3,3,3.3,4.6c1.7,2.7,3.3,5.4,5,8.1c0.6,3.3,0.3,6.7-0.1,9.9c-0.8,5.9-2.7,11.7-2.2,17.7c0.5,5.3,3.4,11.1,8.9,12.6      c0.2,0.1,0.3-0.3,0.1-0.3c-3.1-0.9-5.4-3.2-6.9-5.9c-2.8-5.3-1.9-11.6-0.8-17.3c1-5.2,2.2-10.7,1.5-16.1c0.2,0.3,0.4,0.7,0.7,1      c2.2,3.4,4.8,6.5,7.7,9.3c6,5.8,13,10.3,20,14.7c0.2,0.1,0.4-0.2,0.2-0.3c-0.9-0.5-1.7-1.1-2.6-1.6      c-6.7-4.3-13.4-8.8-18.9-14.6c2,0.9,4.3,1,6.4,1c2.7,0.1,5.7,0.2,7.6,2.4c0.1,0.2,0.4-0.1,0.3-0.2c-1.7-2.1-4.6-2.5-7.1-2.5      c-2.6-0.1-5.6,0.1-7.8-1.5c0,0,0,0,0,0c0,0,0,0,0,0c-2.7-3-5-6.2-7.1-9.6c-2-3.3-3.9-6.6-6.2-9.7c-0.2-0.3-0.4-0.6-0.7-0.9      c2.6,1.7,5.9,2,8.9,1.5c3.5-0.5,6.7-2.2,9.8-3.8c3.1-1.6,6.2-3,9.5-3.9c6.4-1.8,13.2-2.2,19.8-1c0.2,0,0.2-0.3,0-0.3      c-3.6-0.7-7.2-0.9-10.9-0.6c-3.3,0.2-6.5,0.8-9.6,1.7c-3.2,1-6.2,2.4-9.2,3.9c-3.1,1.6-6.3,3.3-9.8,3.7c-3.3,0.4-6.9,0-9.4-2.4      c-1.9-2.4-4.1-4.5-6.5-6.4c-3.4-2.6-7.1-4.6-10.7-6.8c-0.3-0.2-0.6-0.4-0.9-0.6c2.3,0.2,4.7-0.3,6.8-1.2      c2.3-0.9,4.4-2.3,6.4-3.8c2.1-1.5,4.2-2.9,6.5-4.1c4.4-2.4,9.1-4.2,13.9-5.4c0.2-0.1,0.1-0.4-0.1-0.3c-2.7,0.7-5.3,1.5-7.8,2.5      c-2.3,0.9-4.5,2-6.6,3.2c-2.2,1.2-4.3,2.6-6.3,4.1c-2.1,1.4-4.2,2.8-6.6,3.7c-2.2,0.8-4.6,1.2-6.9,0.9c0,0,0,0,0,0      c-2.7-1.7-5.3-3.5-7.6-5.6c1.2,0,2.3-0.6,3.2-1.4c1.3-1.1,2.5-2.5,3.7-3.7c2.2-2.5,4.3-5.1,6.3-7.9c1.9-2.6,3.7-5.4,5.9-7.7      c2-2.1,4.5-3.8,7.2-4.8c2.6-0.9,5.4-1.3,8.1-1C306.3,709.4,306.3,709.1,306.1,709.1z"></path>				</g>			</g>			<g>				<g>					<path class="st3" d="M159,670.3c8.5,4.5,28.4,1.5,34.3,9.2c-7.1,8.7-17.9-3.6-26.9-4.2c-8.5,0.4,4,21.4,16,25      c9.7,3.4,17-7.5,37.4-12.2c17.4-4.3,21.6-0.1,29.4-5.7c14.4-10.4,15.1-34.7,13-35.5c-0.9-0.3-1.8,3.3-7.3,9.2      c-0.1,1-24.2,20.8-21.5,8c6.4-12.7,23.3-7.4,28.3-24.4c3.8-12.8-8.7-27.3-10-26.7c4.5,8.9-10.8,29.5-21.2,32.7      c-6.4,1.4-4.2-3.6-0.2-8c11.1-16.2,18.1-23.9,15.1-39.5c-3.7-19-24.8-19-41.4-33.2c0,0-23.5,13-27.9,30.4      c-4.2,16.8,15,19.3,19.7,30c2.5,4.5-1.7,9.6-6,9.2c-7.7,0.7-14.6-6.7-19.6-12.1c-8.2-9-9-13.9-11.6-13.5      c-6.9,0.8-7.2,25.6,2.3,31.1c7.6,10.6,33.6,7.6,37.7,21.2c-7.7,6.9-33-5.5-40.7-13.5c-3.6-4.7-4.1-9.4-5.2-9.3      C150.2,644.5,151.7,665.8,159,670.3z"></path>				</g>				<g>					<path class="st4" d="M174.6,685.8c2.2,2,4.9,3.5,7.8,4.3c2.8,0.8,5.7,0.8,8.6,0.3c3.1-0.5,6.1-1.6,9.1-2.6      c3.3-1.1,6.6-1.9,9.9-2.6c1.5-0.3,3.1-0.6,4.6-0.7c1.3-0.1,2.7,0,3.7,0.9c0,0,0,0,0,0c0,0.2,0.1,0.5,0.1,0.7      c0.1,0.8,0.2,1.6,0.3,2.4c0.1,0,0.2-0.1,0.3-0.1c-0.1-1.5-0.4-2.9-0.7-4.3c0,0,0,0,0,0c0-0.6,0.2-1.3,0.4-1.9      c0.2-0.6,0.5-1.2,0.9-1.6c0.7-0.6,1.6-0.9,2.5-1.1c0.9-0.3,1.7-0.5,2.6-0.7c6.1-1.6,12.5-2.4,18.4-4.8c4.8-2,9.4-5,12.1-9.7      c0.1-0.2-0.2-0.3-0.3-0.1c-1.5,2.7-3.8,4.9-6.3,6.6c-5,3.4-11,4.8-16.8,6.1c-3.2,0.7-6.5,1.4-9.7,2.4c-1.2,0.4-2.5,0.8-3.2,1.9      c-0.4,0.6-0.6,1.3-0.8,2.1c-1-4-2.5-7.8-4.1-11.6c-0.1-0.2-0.1-0.4-0.2-0.5c0,0,0,0,0,0c0.4-3,1.7-5.7,3.5-8.1      c3.7-4.8,9.2-7.6,14.6-10c1.5-0.7,3-1.3,4.5-2c1.4-0.7,2.8-1.3,4.1-2.2c2.2-1.4,4.1-3.6,4.4-6.3c0-0.2-0.3-0.3-0.3-0.1      c-0.3,3.4-3.2,5.7-6,7.2c-5.6,3-11.8,4.9-16.9,8.8c-3.9,3-7.2,7.3-8,12.2c-1.5-3.6-2.9-7.2-3.7-10.9c-0.4-2.1-0.6-4.1-0.7-6.2      c0,0,0,0,0,0c0,0,0,0,0-0.1c-0.1-1.9,0-3.8,0.1-5.7c0.2-3.2,0.6-6.3,0.8-9.5c1.5-3,3.7-5.5,6-7.9c4.2-4.2,9.2-7.8,12.4-12.9      c2.8-4.6,3.9-10.9,0.4-15.5c-0.1-0.2-0.4,0-0.3,0.2c1.9,2.5,2.4,5.8,1.9,8.9c-0.9,6-5.4,10.4-9.7,14.3      c-3.9,3.6-8.2,7.2-10.8,12c0-0.4,0.1-0.8,0.1-1.2c0.2-4,0-8.1-0.6-12.1c-1.3-8.2-4.3-16-7.2-23.7c-0.1-0.2-0.4-0.1-0.3,0.1      c0.4,0.9,0.7,1.9,1.1,2.8c2.8,7.5,5.5,15.1,6.5,23c-1-1.9-2.8-3.3-4.5-4.6c-2.1-1.6-4.5-3.6-4.6-6.5c0-0.2-0.3-0.2-0.3,0      c0.1,2.7,2.2,4.7,4.2,6.3c2.1,1.6,4.5,3.3,5.4,5.9c0,0,0,0,0,0c0,0,0,0,0,0c0.4,4,0.3,8-0.1,12c-0.3,3.8-0.8,7.6-0.9,11.5      c0,0.4,0,0.7,0,1.1c-1-2.9-3.5-5.2-6.2-6.6c-3.1-1.7-6.7-2.2-10.1-2.8c-3.4-0.6-6.8-1.3-10-2.6c-6.2-2.4-11.9-6.2-16.5-11.1      c-0.1-0.2-0.4,0.1-0.2,0.3c2.5,2.7,5.3,5,8.3,7c2.7,1.8,5.7,3.2,8.7,4.4c3.2,1.2,6.4,1.8,9.7,2.4c3.5,0.6,7,1.2,10.1,2.9      c2.9,1.6,5.5,4.2,6.1,7.5c0.1,3.1,0.5,6.1,1.4,9.1c1.2,4.1,2.9,8,4.5,11.9c0.1,0.3,0.3,0.7,0.4,1c-1.7-1.5-3.9-2.6-6.2-3.2      c-2.4-0.6-4.9-0.7-7.4-0.8c-2.6-0.1-5.1-0.2-7.7-0.6c-4.9-0.7-9.8-2-14.4-4c-0.2-0.1-0.4,0.2-0.2,0.3c2.5,1.1,5.1,2,7.8,2.7      c2.4,0.6,4.8,1.1,7.2,1.4c2.5,0.3,5,0.4,7.5,0.5c2.5,0.1,5.1,0.2,7.5,0.9c2.2,0.7,4.4,1.8,6.1,3.4c0,0,0,0,0,0      c1.1,2.9,2.2,5.9,2.8,9c-0.9-0.7-2.2-0.9-3.4-0.8c-1.7,0.1-3.5,0.5-5.2,0.8c-3.3,0.7-6.5,1.5-9.7,2.5c-3.1,1-6.1,2.1-9.3,2.6      c-2.9,0.5-5.8,0.4-8.7-0.5c-2.6-0.8-5.1-2.2-7.1-4.1C174.6,685.4,174.4,685.6,174.6,685.8z"></path>				</g>			</g>		</g>		<g>			<path class="st5" d="M260,812.5c-0.4,5-6.9,45.3-7.5,53h-57.8c-0.7-8.1-7.9-47.7-8.3-53H260z"></path>			<path class="st6" d="M186.4,812.5c0.1,0.8,0.3,3.2,0.6,6.7h22.2c20.2,0,34.7,17.2,34.6,37.4c0,4.4-1.8,7.1-4.1,8.9h12.8    c0.6-7.7,7.2-48,7.5-53H186.4z"></path>			<path class="st5" d="M258.6,812.5h-70.8c-4.7,0-8.6-3.1-8.6-7l0,0c0-3.9,3.9-7,8.6-7h70.8c4.8,0,8.6,3.1,8.6,7l0,0    C267.2,809.4,263.3,812.5,258.6,812.5z"></path>		</g>	</g>	<g>		<path class="st7" d="M702.5,504.9c36.2-83.4-85.8-86.2-89.9-207.5c0.8-2.7,1.3-5.6,2.1-8.4c12.2-39.9-13.1-67.5-46.8-66.8   c-52.2-26.8-106.1,4.7-112.3,51.9c-8.2,62.5-7.5,96.7-49.7,141.1c-66.2,69.6-94,129.6-24.4,188.4   C455.5,665.7,702.5,504.9,702.5,504.9z"></path>		<path class="st7" d="M693.5,871.4l-21.9,0.2h-0.1l-38.2,0.4l-103.9,1.1L413,871.9c0.7-3.2,1.4-6.4,2.1-9.6   c8.2-37.1,16.2-72.8,17.3-75.5c79.4-28.2,132.9-26.9,233.4-9.7l25.3,85.7L693.5,871.4z"></path>		<path class="st8" d="M635.4,430.2c0,0,50.4,44.3,34.1,119.5c-16.5,75.8-17.2,102.7-3.8,176.8c8.9,49.1,7.7,58.8,7.7,58.8   s-42.3,22-116.3,21.3c-58.2-0.6-124.7-19.8-124.7-19.8s24.4-74.1,22.1-171.3C451,467.4,399,472.5,441.7,443.9   C484.4,415.3,566.2,399.9,635.4,430.2z"></path>		<path class="st9" d="M525.3,804.8c-48.2-5-93-17.9-93-17.9s24.4-74,22.1-171.3c-0.3-11.8-0.9-22.7-1.7-32.6l104.6-98.7   c0,0-38.6,135.3-73.8,195.7C449.4,738.5,483.1,784.3,525.3,804.8z"></path>		<g>			<path class="st10" d="M487.6,313.4c0,0-15.7-14.5-17.6,2.2c-2,17.2,22.9,31.1,22.9,31.1L487.6,313.4z"></path>			<g>				<path class="st10" d="M584.8,416.1c0,0-16.4,60.3-70.8,0.9c0,0,2.1-4.4,6.6-16.1c3.7-9.4,3.8-18.8,5.7-36.6     c0.3-2.9,1.8-5.6,2-8.8l32.8-0.3c0,0,0.1,3.7,0.6,9.3c1.1,11.2,4.1,30.1,12,42v0C576.8,410.9,580.4,414.3,584.8,416.1z"></path>				<path class="st11" d="M544.2,440.5c-8.4-3.5-18.5-10.7-30.2-23.6c0,0,2.1-4.4,6.6-16.1c3.7-9.4,3.8-18.8,5.7-36.6     c0.3-2.9,1.8-5.6,2-8.8l32.9-0.4c0,0,0.1,3.7,0.6,9.3c0.7,7.6,2.4,18.8,5.8,28.9c-4.8,1.8-14.5,3.7-31.3-0.1     C521.1,389.8,529.5,423.9,544.2,440.5z"></path>				<path class="st10" d="M490.1,344.9c11.8,19.7,39.9,48.4,68.9,44.1c28.6-4.2,52.2-70.2,39.4-104c-12.8-33.8-41.5-60.9-87.4-33.3     C472.4,274.9,483.8,334.3,490.1,344.9z"></path>				<path class="st7" d="M606.2,304.4c-21.3-10.9-34.8-65.4-44.8-44.1c-9.5,25-18.9,42.7-35.1,56.6c-10.7,9.2-28.6,19.2-36.5,6.8     c-8.3-12.9-10.3-17.1-10.8-27.7c-1.8-44.1,39.5-83.7,99.7-54C608.2,256.5,606.2,304.4,606.2,304.4z"></path>			</g>		</g>		<path class="st12" d="M564.6,462.7C545.5,493,490.2,650.3,436,661.8c-15.8-1.7-7.8-65,16.5-99c22.2-31,69.2-104.1,75.1-119.8   C533.6,427.3,569.1,450.8,564.6,462.7z"></path>		<path class="st8" d="M475.1,507.1c1.8,12.1,2.2,26.4,0.7,43.2c-1.6,16.9-5.2,36.2-11.4,57.9c-1.6,5.3,1.3,57.7-46.3,65.6   c-14,2.3-51.7-9.2-49.4-57c1.6-33.7,11.8-96.2,43.5-143.2c17.6-26,35.6-35.9,40.4-27.5C459.1,456.3,462.9,488.3,475.1,507.1z"></path>		<path class="st10" d="M731.6,743.8C719.8,755,712,761.9,712,761.9c-19.1,48.8-69.4,92.9-80.5,52.8c-3.3-12,35.4-40.5,37.1-52.2   c1.4-9.6,0.6-10.7,0-20.6c-0.3-5.1,15-7.1,15-7.1l10.7-15.3C694.1,719.6,768.1,709.1,731.6,743.8z"></path>		<path class="st8" d="M807.6,631.7c-5.3,39-47.8,82.6-87.2,124c-10-10.8-21.4-21.6-30.4-31.1l48.6-93.3c0,0-70.8-63.4-87.4-82.8   c-60-69.9-15.8-118.3-15.8-118.3C705.5,463,815.5,573.7,807.6,631.7z"></path>		<path class="st9" d="M500.1,477.7c0,0-19.3,77.7-36.7,139.7c-3.2,11.4-6.3,22.2-9.2,32c-6.4,11.3-17.4,21.3-36.1,24.4   c-9.2,1.5-28.8-3-40.4-19.9v0c0,0-8.9-30.4,8.6-58.3c11.5-18.3,56.8-63.3,86.7-92C488.7,488.4,500.1,477.7,500.1,477.7z"></path>		<path class="st12" d="M524.3,450.3c0,0,3.7-21.7,5.2-29.3c1.5-7.6,0.8-15.3-1-21.9c-1.9-6.8-4.6-11.8-4.1-15.6   c0.8-5.9,10.8-6.3,15.8,1.9c5.1,8.5,8.9,18.5,9.9,21.9c0.9,3,12.7-7.8,19.6-21.6c10.1-20.1,24.7,3.7,26.5,15.3   c0.7,4.8,0.3,18.4-10.2,38c-4.9,9.1-20.1,27-26.2,32.3C552.4,477.8,522.9,457.9,524.3,450.3z"></path>		<path class="st8" d="M404.8,669.2c20.2,14.9,54.1-8.7,66.7-22.7c35.8-39.6,63.2-115.8,85.9-162.2L518,456.3   c-35.7,44-107.9,120.5-111,124.2C391.1,599.4,370.8,644,404.8,669.2z"></path>		<path class="st9" d="M712.5,607.6c-14.7-13.5-32.8-30.2-46.1-43.3c-6.1,29.6-9.4,51.5-10,73.1c-4.4-14.3-10-38.9-6.8-63.4   c1.5-12,1.2-20.8,0.1-27.2c-2.1-12-7.2-15.7-8.5-16.5c2.1,1.1,14.4,7.8,28.4,19.2C685.7,562.7,704.3,582.4,712.5,607.6z"></path>		<path class="st7" d="M563.6,255.6c-0.1,4-0.7,7.9-1.5,11.7c-0.8,3.8-1.8,7.6-3,11.3c-2.4,7.4-5.9,14.5-10.1,21   c-4.3,6.5-9.5,12.4-15.3,17.5c-5.9,5.1-12.5,9.3-19.4,12.7c-0.3,0.1-0.6,0-0.8-0.3c-0.1-0.3,0-0.6,0.3-0.8   c6.8-3.5,13.2-7.8,18.9-12.9c5.7-5.1,10.6-11,14.7-17.4c4-6.5,7.2-13.4,9.5-20.7c1.1-3.6,2-7.3,2.7-11.1c0.7-3.7,1.1-7.6,1.2-11.2   l0-0.1c0-0.8,0.7-1.5,1.5-1.5C562.9,254,563.6,254.7,563.6,255.6C563.6,255.6,563.6,255.6,563.6,255.6z"></path>		<path class="st7" d="M465.7,261.2c0.1,0-0.3,0.2-0.4,0.3c-0.2,0.2-0.5,0.4-0.7,0.6l-0.7,0.7l-0.6,0.8c-0.8,1-1.5,2.2-2.2,3.4   c-1.3,2.4-2.5,4.9-3.5,7.5c-2.1,5.2-3.8,10.6-5.2,16.1c-1.5,5.5-2.7,11-3.8,16.6l-1.8,8.4c-0.6,2.8-1.3,5.6-1.9,8.4   c-2.7,11.1-6,22.1-10.2,32.8c-4.2,10.6-9.5,20.9-15.8,30.5c-6.3,9.6-13.5,18.5-21.2,26.9c-3.9,4.2-7.8,8.3-11.6,12.5   c-3.8,4.2-7.5,8.6-11,13l-2.6,3.4l-2.5,3.5c-1.7,2.3-3.2,4.7-4.8,7c-3,4.8-5.8,9.7-8.1,14.9c-4.7,10.3-7.5,21.5-7.5,32.9   c0,0.2-0.2,0.4-0.4,0.4c-0.2,0-0.4-0.2-0.4-0.4c-0.1-11.5,2.7-22.9,7.3-33.3c2.3-5.3,5.1-10.2,8.1-15.1c1.6-2.4,3.1-4.8,4.8-7.1   l2.5-3.5l2.6-3.4c3.5-4.5,7.2-8.9,10.9-13.2c3.8-4.3,7.7-8.4,11.5-12.6c7.6-8.4,14.7-17.3,20.8-26.9c6.1-9.5,11.3-19.7,15.4-30.2   c4.1-10.6,7.2-21.5,9.8-32.6c0.6-2.8,1.3-5.5,1.8-8.3l1.7-8.4c1.1-5.6,2.3-11.2,3.7-16.8c1.4-5.6,3.1-11.1,5.1-16.5   c1-2.7,2.2-5.4,3.7-7.9c0.7-1.3,1.5-2.6,2.4-3.8l0.7-0.9l0.8-0.9c0.3-0.3,0.6-0.6,0.9-0.8c0.4-0.3,0.6-0.5,1.4-0.8   c0.8-0.2,1.6,0.2,1.8,1C466.9,260.2,466.5,261,465.7,261.2z"></path>		<path class="st7" d="M614.3,287.5c0.4,7.9,1.8,15.9,3.5,23.8c1.8,7.9,4.1,15.6,7,23.1c5.6,15.1,13.3,29.5,22.7,42.6   c4.7,6.6,9.8,12.8,15.3,18.8c5.5,5.9,11.6,11.2,17.4,17c5.8,5.8,11.3,11.8,15.8,18.7c2.2,3.5,4.1,7.1,5.4,11.1c1.3,3.9,2,8,2,12.1   c0,0.3-0.2,0.5-0.5,0.5c-0.3,0-0.5-0.2-0.5-0.5c-0.1-4-0.8-8-2.1-11.8c-1.3-3.8-3.2-7.4-5.4-10.7c-4.4-6.7-10-12.6-15.8-18.3   c-5.8-5.6-12-10.9-17.6-16.8c-5.6-5.9-10.9-12.2-15.7-18.8c-9.6-13.2-17.5-27.7-23.4-42.9c-2.9-7.6-5.4-15.4-7.3-23.4   c-1.9-8-3.3-16-3.8-24.3c0-0.8,0.6-1.5,1.4-1.6C613.6,286,614.3,286.6,614.3,287.5L614.3,287.5L614.3,287.5z"></path>	</g>	<polygon class="st7" points="1058.8,866.9 1058.8,867.4 671.6,871.6 671.5,871.6 633.3,872.1 529.4,873.2 393.7,871.7 0,867.4   0,866.9 394.5,862.5 529.5,861.1 635.1,862.2 671.1,862.6 671.2,862.6  "></polygon>	<g>		<path class="st5" d="M777.6,0c-57,0-103.2,46.2-103.2,103.2c0,19.8,5.6,38.3,15.3,54l-23,54.5l65.1-16   c13.8,6.8,29.3,10.7,45.8,10.7c57,0,103.2-46.2,103.2-103.2C880.8,46.2,834.6,0,777.6,0z"></path>		<g>			<path class="st13" d="M768.5,136.3c-3.8-0.7-6.3-4.5-5.6-8.3l0.8-4.3c1.2-6.3,3-11.1,5.4-14.5c2.4-3.4,5.1-6.2,8.1-8.4    c3-2.1,6.1-4.1,9.3-6c4.3-2.5,8.2-5.3,11.6-8.2c3.4-2.9,5.7-7.2,6.8-12.8c0.7-3.8,0.5-7.3-0.8-10.5c-1.3-3.2-3.2-5.9-5.6-8.1    c-2.5-2.2-5.3-3.6-8.5-4.2c-3.9-0.8-7.5-0.6-10.9,0.6c-3.3,1.2-6.3,3-8.8,5.6c-1,1-1.9,2-2.8,3.1c-2.4,2.8-6.6,3.3-9.5,1.1    l-2.7-2c-3.3-2.4-3.9-7-1.3-10.2c0.6-0.7,1.2-1.4,1.8-2.1c2.6-3,5.8-5.8,9.6-8.3c3.8-2.5,8.2-4.3,13.2-5.4    c5-1.1,10.6-1.1,16.7,0.1c7,1.4,12.9,3.9,17.9,7.6c5,3.7,8.6,8.5,10.9,14.4c2.3,5.9,2.7,12.7,1.1,20.5    c-1.2,6.3-3.1,11.2-5.7,14.9c-2.6,3.7-5.5,6.8-8.8,9.3c-3.3,2.5-6.6,4.9-10,7.1c-2.9,1.8-5.6,3.6-8.1,5.5    c-2.5,1.9-4.7,4.3-6.6,7.1c-1.9,2.8-3.3,6.7-4.3,11.7l0,0c-0.7,3.8-4.5,6.3-8.3,5.6L768.5,136.3z M764.4,172    c-3.4-0.7-6-2.2-7.9-4.6c-1.8-2.4-2.4-5.1-1.8-8.3c0.6-3.1,2.2-5.5,4.9-7.1c2.7-1.6,5.6-2.1,8.9-1.5c3.3,0.6,5.8,2.2,7.6,4.7    c1.8,2.5,2.4,5.3,1.8,8.4c-0.6,3.1-2.2,5.5-4.7,7C770.8,172.2,767.8,172.7,764.4,172z"></path>		</g>	</g>	<g>		<path class="st14" d="M952.8,354.9c-26.8-32.4-74.7-36.9-107.1-10.2c-11.3,9.3-19.1,21.2-23.5,34l-41.7,12.6l39.7,29.5   c2.6,11,7.7,21.7,15.4,31c26.8,32.4,74.7,36.9,107.1,10.2C975,435.2,979.6,387.3,952.8,354.9z"></path>		<g>			<g>				<g>					<path class="st13" d="M909.5,439h-30.1v-1c0-12.6-9.2-27.1-13.1-32.8c-0.7-0.8-1.3-1.7-1.9-2.6l-1.6-1.6h0.6      c-3.3-5.5-5-11.8-5-18.3c0-19.9,16.2-36.1,36.1-36.1c8.2,0,15.9,2.7,22.3,7.7c8.7,6.9,13.8,17.2,13.8,28.4      c0,6.3-1.6,12.4-4.7,17.9h0.2l-1.1,1.5c0,0,0,0.1-0.1,0.2c-0.3,0.5-0.7,1.1-1.1,1.6l-0.5,0.7c-3.8,5.6-13.8,20.6-13.8,33.4V439      z M881.4,437.1h26.2c0.5-13.1,10.3-27.8,14.1-33.5l0.5-0.8c0.4-0.5,0.7-1,1-1.5l0.1-0.1c0,0,0,0,0,0l0,0      c3.5-5.5,5.3-11.8,5.3-18.3c0-10.5-4.7-20.3-13-26.8c-6.1-4.8-13.4-7.3-21.1-7.3c-18.8,0-34.2,15.3-34.2,34.2      c0,6.7,1.9,13.2,5.6,18.7l0.2,0.3c0.5,0.7,1.1,1.5,1.7,2.3l0,0C871.9,409.8,880.9,424.1,881.4,437.1z M864.5,402.7      C864.5,402.7,864.5,402.7,864.5,402.7C864.5,402.7,864.5,402.7,864.5,402.7z"></path>				</g>			</g>			<g>				<path class="st13" d="M902,438.7h-15.3c-0.2,0-0.4-0.2-0.5-0.4l-7.9-46.3c0-0.2,0.1-0.4,0.3-0.5c0.2-0.1,0.5,0,0.6,0.2l5.5,10.9     l-1.2-6.3c0-0.2,0-0.4,0.2-0.5c0.2-0.1,0.4-0.1,0.5,0l2.7,2l1.1-6c0-0.2,0.2-0.4,0.4-0.4c0.2,0,0.4,0.1,0.5,0.3l2.5,6.7     l3.8-13.3c0.1-0.2,0.3-0.4,0.5-0.3c0.2,0,0.4,0.2,0.4,0.4l1,12.4l1.6-5.2c0.1-0.2,0.2-0.3,0.4-0.3c0,0,0,0,0,0     c0.2,0,0.4,0.1,0.4,0.3l1.6,5.4l0.3-2c0-0.2,0.2-0.4,0.4-0.4c0.2,0,0.4,0.1,0.5,0.3c0.7,1.8,1.6,3.8,2,4.7     c1-2.2,4.2-9.5,6.5-14.5c0.1-0.2,0.3-0.3,0.6-0.3c0.2,0.1,0.4,0.3,0.3,0.5l-9.3,52.1C902.4,438.6,902.2,438.7,902,438.7z      M887.1,437.8h14.6l8.6-47.9c-2,4.5-5.1,11.4-5.3,11.7c-0.1,0.1-0.3,0.3-0.5,0.2c-0.3,0-0.6,0-2.3-4.2l-0.4,2.4     c0,0.2-0.2,0.4-0.4,0.4c-0.2,0-0.4-0.1-0.5-0.3l-1.7-5.8l-1.8,6c-0.1,0.2-0.3,0.3-0.5,0.3c-0.2,0-0.4-0.2-0.4-0.4l-1-12.3     l-3.5,12.2c-0.1,0.2-0.2,0.3-0.4,0.3c-0.2,0-0.4-0.1-0.4-0.3l-2.5-6.4l-0.9,5.1c0,0.2-0.1,0.3-0.3,0.3c-0.1,0.1-0.3,0-0.4-0.1     l-2.4-1.7l1.5,8.3c0,0.2-0.1,0.4-0.3,0.5c-0.2,0.1-0.5,0-0.6-0.2l-5.6-11.1L887.1,437.8z"></path>			</g>			<g>				<path class="st13" d="M894.3,459.9c-8.5,0-15.4-6.9-15.4-15.4c0,0,0,0,0,0c-1.6-0.4-2.8-1.8-2.8-3.5c0-1,0.4-1.9,1.1-2.6     c0.7-0.7,1.6-1.1,2.6-1.1h29.6c2,0,3.6,1.6,3.6,3.6c0,1-0.4,1.9-1.1,2.6c-0.6,0.6-1.4,1-2.3,1     C909.7,453.1,902.8,459.9,894.3,459.9z M879.8,439.3c-0.5,0-0.9,0.2-1.2,0.5c-0.3,0.3-0.5,0.8-0.5,1.2c0,0.9,0.8,1.7,1.7,1.7     h1.2l-0.1,1c0,0.3,0,0.5,0,0.8c0,7.4,6.1,13.5,13.5,13.5c7.4,0,13.5-6,13.5-13.5c0-0.3,0-0.6,0-0.8l-0.1-1h1.7     c0.5,0,0.9-0.2,1.2-0.5c0.3-0.3,0.5-0.7,0.5-1.2c0-0.9-0.8-1.7-1.7-1.7H879.8z"></path>			</g>		</g>	</g>	<g>		<path class="st14" d="M366.1,84c40.9,9.5,66.4,50.4,56.8,91.3c-3.3,14.2-10.4,26.6-20,36.2l7.4,43l-44.1-22.4   c-11,2.6-22.8,2.8-34.6,0c-40.9-9.5-66.4-50.4-56.8-91.3C284.3,99.9,325.2,74.5,366.1,84z"></path>		<g>			<g>				<g>					<path class="st13" d="M357.3,201.7c-5.5,1.2-10.9-2.3-12.1-7.8l-0.3-1.5c-2.5-0.3-5-0.8-7.5-1.6l-0.6,0.9c-3,4.7-9.3,6-14,3      c-2.3-1.5-3.8-3.7-4.4-6.4c-0.6-2.7-0.1-5.4,1.4-7.6l0.9-1.3c-1.6-2-3-4.1-4.2-6.4l-1,0.2c-5.5,1.2-10.9-2.3-12.1-7.8      c-1.2-5.5,2.3-10.9,7.8-12.1l1.5-0.3c0.3-2.5,0.8-5,1.6-7.4l-0.9-0.6c-4.7-3-6-9.3-3-14c3-4.7,9.3-6,14-3l1.3,0.9      c2-1.6,4.1-3,6.4-4.2l-0.2-1c-1.2-5.5,2.3-10.9,7.8-12.1c5.5-1.2,10.9,2.3,12.1,7.8l0.3,1.5c2.5,0.3,5,0.8,7.4,1.6l0.6-0.9      c1.5-2.3,3.7-3.8,6.4-4.4c2.7-0.6,5.4-0.1,7.6,1.4c4.7,3,6,9.3,3,14l-0.9,1.3c1.6,2,3,4.1,4.2,6.4l1-0.2      c5.5-1.2,10.9,2.3,12.1,7.8c1.2,5.5-2.3,10.9-7.8,12.1l-1.5,0.3c-0.3,2.5-0.8,5-1.6,7.4l0.9,0.6c2.3,1.5,3.8,3.7,4.4,6.4      c0.6,2.7,0.1,5.4-1.4,7.6c-3,4.7-9.3,6-14,3l-1.3-0.9c-2,1.6-4.1,3-6.4,4.2l0.2,1C366.3,195.2,362.8,200.6,357.3,201.7z       M337.4,186.7c3,1.1,6.1,1.8,9.3,2c0.9,0.1,1.6,0.7,1.8,1.5l0.6,3c0.7,3.4,4,5.5,7.4,4.8c3.4-0.7,5.5-4,4.8-7.4l-0.5-2.5      c-0.2-0.9,0.3-1.8,1.1-2.2c2.9-1.3,5.6-3.1,8-5.2c0.7-0.6,1.6-0.7,2.4-0.2l2.5,1.6c2.9,1.9,6.8,1,8.6-1.8      c0.9-1.4,1.2-3.1,0.9-4.7c-0.3-1.6-1.3-3-2.7-3.9l-2.2-1.4c-0.8-0.5-1.1-1.5-0.8-2.3c1.1-3,1.8-6.1,2-9.3      c0.1-0.9,0.7-1.6,1.5-1.8l3-0.6c3.4-0.7,5.5-4,4.8-7.4c-0.7-3.4-4-5.5-7.4-4.8l-2.5,0.5c-0.9,0.2-1.8-0.3-2.2-1.1      c-1.3-2.9-3.1-5.6-5.2-8c-0.6-0.7-0.7-1.6-0.2-2.4l1.6-2.5c1.9-2.9,1-6.8-1.8-8.6c-1.4-0.9-3.1-1.2-4.7-0.9      c-1.6,0.3-3,1.3-3.9,2.7l-1.4,2.2c-0.5,0.8-1.5,1.1-2.3,0.8c-3-1.1-6.1-1.8-9.3-2c0,0-0.1,0-0.1,0c-0.8-0.1-1.5-0.7-1.7-1.5      l-0.6-3c-0.7-3.4-4-5.5-7.4-4.8c-3.4,0.7-5.5,4-4.8,7.4l0.5,2.5c0.2,0.9-0.3,1.8-1.1,2.2c-2.9,1.3-5.6,3.1-8,5.2      c-0.7,0.6-1.6,0.7-2.4,0.2l-2.5-1.6c-2.9-1.9-6.8-1-8.6,1.8c-1.9,2.9-1,6.8,1.8,8.6l2.2,1.4c0.8,0.5,1.1,1.5,0.8,2.3      c-1.1,3-1.8,6.1-2,9.3c-0.1,0.9-0.7,1.6-1.5,1.8l-3,0.6c-3.4,0.7-5.5,4-4.8,7.4c0.7,3.4,4,5.5,7.4,4.8l2.5-0.5      c0.9-0.2,1.8,0.3,2.2,1.1c1.3,2.9,3.1,5.6,5.2,8c0.6,0.7,0.7,1.6,0.2,2.4l-1.6,2.5c-0.9,1.4-1.2,3.1-0.9,4.7      c0.3,1.6,1.3,3,2.7,3.9c2.9,1.9,6.8,1,8.6-1.8l1.4-2.2c0.5-0.7,1.3-1,2.1-0.8C337.2,186.6,337.3,186.6,337.4,186.7L337.4,186.7      z M350.6,122.8L350.6,122.8L350.6,122.8z M354.1,182.4c-14.2,3-28.2-6-31.3-20.2c-3-14.2,6-28.2,20.2-31.3      c14.2-3,28.2,6,31.3,20.2C377.4,165.4,368.3,179.4,354.1,182.4z M343.9,134.7c-12.1,2.6-19.8,14.5-17.2,26.6      c2.6,12.1,14.5,19.8,26.6,17.2c12.1-2.6,19.8-14.5,17.2-26.6C367.9,139.9,356,132.1,343.9,134.7z"></path>				</g>			</g>		</g>	</g>	<g>		<path class="st5" d="M146.2,510.8c0.4,0.7,0.6,1.6,0.4,2.4c-0.3,1.1-1.1,2-2.2,2.3l-10.6,3.1c-1.1,0.3-2.2,0-3.1-0.7   c-0.8-0.8-1.2-1.9-0.9-3l2.6-10.7c0.3-1.1,1.1-2,2.2-2.3c1.1-0.3,2.2,0,3.1,0.7l7.9,7.6C145.9,510.4,146.1,510.6,146.2,510.8z    M132.4,515.9c0,0.1,0.1,0.1,0.1,0.1c0.1,0.1,0.3,0.3,0.6,0.2l10.6-3.1c0.3-0.1,0.4-0.4,0.5-0.5c0-0.1,0.1-0.4-0.2-0.6l-7.9-7.6   c-0.3-0.2-0.5-0.2-0.6-0.2c-0.1,0-0.4,0.1-0.5,0.5l-2.6,10.7C132.3,515.6,132.3,515.8,132.4,515.9z"></path>	</g>	<g>		<path class="st5" d="M938.6,559.2c0.4,0.7,0.6,1.6,0.4,2.4c-0.3,1.1-1.1,2-2.2,2.3l-10.6,3.1c-1.1,0.3-2.2,0-3.1-0.7   c-0.8-0.8-1.2-1.9-0.9-3l2.6-10.7c0.3-1.1,1.1-2,2.2-2.3c1.1-0.3,2.2,0,3.1,0.7l7.9,7.6C938.3,558.8,938.5,559,938.6,559.2z    M924.8,564.3c0,0.1,0.1,0.1,0.1,0.1c0.1,0.1,0.3,0.3,0.6,0.2l10.6-3.1c0.3-0.1,0.4-0.4,0.5-0.5c0-0.1,0.1-0.4-0.2-0.6l-7.9-7.6   c-0.3-0.2-0.5-0.2-0.6-0.2c-0.1,0-0.4,0.1-0.5,0.5l-2.6,10.7C924.7,564,924.8,564.2,924.8,564.3z"></path>	</g>	<g>		<path class="st15" d="M552.4,130.3l3.9-3.9c0.9-0.9,0.9-2.3,0-3.2c-0.9-0.9-2.3-0.9-3.2,0l-3.9,3.9l-3.9-3.9   c-0.9-0.9-2.3-0.9-3.2,0c-0.9,0.9-0.9,2.3,0,3.2l3.9,3.9l-3.9,3.9c-0.9,0.9-0.9,2.3,0,3.2c0.4,0.4,1,0.7,1.6,0.7s1.2-0.2,1.6-0.7   l3.9-3.9l3.9,3.9c0.4,0.4,1,0.7,1.6,0.7c0.6,0,1.2-0.2,1.6-0.7c0.9-0.9,0.9-2.3,0-3.2L552.4,130.3z"></path>	</g>	<g>		<g>			<path class="st16" d="M186.4,206.9c-4.9,0-8.9-4-8.9-8.9c0-4.9,4-8.9,8.9-8.9s8.9,4,8.9,8.9C195.2,202.9,191.3,206.9,186.4,206.9    z M186.4,192c-3.4,0-6.1,2.7-6.1,6.1c0,3.4,2.7,6.1,6.1,6.1c3.4,0,6.1-2.7,6.1-6.1C192.5,194.7,189.7,192,186.4,192z"></path>		</g>	</g>	<g>		<g>			<path class="st16" d="M789.2,817.8c-4.9,0-8.9-4-8.9-8.9c0-4.9,4-8.9,8.9-8.9c4.9,0,8.9,4,8.9,8.9    C798,813.8,794.1,817.8,789.2,817.8z M789.2,802.8c-3.4,0-6.1,2.7-6.1,6.1c0,3.4,2.7,6.1,6.1,6.1c3.4,0,6.1-2.7,6.1-6.1    C795.3,805.5,792.5,802.8,789.2,802.8z"></path>		</g>	</g></g></svg>